
<svg t="1528803155173" class="icon" style="" viewBox="0 0 1024 1024" version="1.1" xmlns="http://www.w3.org/2000/svg" p-id="6268" xmlns:xlink="http://www.w3.org/1999/xlink" width="200" height="200">
<path d="M956.8 854.4l-416-720c0-3.2-3.2-6.4-6.4-6.4-6.4-6.4-16-9.6-22.4-9.6-9.6 0-16 3.2-22.4 9.6l-6.4 6.4-416 720c-3.2 9.6-6.4 19.2-3.2 25.6 3.2 12.8 16 25.6 32 25.6h832c19.2 0 32-12.8 32-32 0-3.2 0-6.4-3.2-9.6v-9.6z m-809.6-12.8L512 214.4l361.6 627.2H147.2z" fill="#333333" p-id="6269"></path><path d="M480 374.4v256c0 16 12.8 32 32 32s32-12.8 32-32v-256c0-16-12.8-32-32-32s-32 12.8-32 32zM512 694.4c-19.2 0-32 12.8-32 32v32c0 19.2 12.8 32 32 32s32-12.8 32-32v-32c0-19.2-16-32-32-32z" fill="#333333" p-id="6270"></path></svg>