
<svg viewBox="0 0 1024 1024" version="1.1" xmlns="http://www.w3.org/2000/svg"  width="1024" height="1024">
  <path d="M828.128 751.744l122.592 122.624a31.392 31.392 0 1 1-44.448 44.448L783.68 796.16a192 192 0 1 1 44.48-44.48zM864 470.72a257.152 257.152 0 0 0-64-52.448v-258.24C800 142.304 785.792 128 768.256 128H191.744C174.56 128 160 142.336 160 160v704c0 17.696 14.208 32 31.744 32h576.512c17.184 0 31.744-14.336 31.744-32v-2.272l2.336-1.376 57.792 57.792A64.16 64.16 0 0 1 799.84 960H160.16C124.736 960 96 931.2 96 896.288V127.68C96 92.512 124.704 64 160.16 64h639.68C835.264 64 864 92.8 864 127.712V470.72z m-193.12 296.16a128 128 0 1 0 0-256 128 128 0 0 0 0 256zM224 288c0-17.664 14.592-32 32.064-32h319.872A31.968 31.968 0 0 1 608 288c0 17.664-14.592 32-32.064 32H256.064A31.968 31.968 0 0 1 224 288z m0 128c0-17.664 14.496-32 31.904-32h192.192c17.6 0 31.904 14.208 31.904 32 0 17.664-14.496 32-31.904 32H255.904A31.872 31.872 0 0 1 224 416z" fill="#333333" p-id="5648"></path>
</svg>