
<svg t="1535964244461" class="icon" style="" viewBox="0 0 1024 1024" version="1.1" xmlns="https://www.w3.org/2000/svg" p-id="1587" xmlns:xlink="https://www.w3.org/1999/xlink" width="200" height="200"><path d="M813.89899 309.139394c-10.472727-49.648485-39.434343-90.246465-81.325253-114.424242-85.462626-49.389899-198.723232-13.705051-252.379798 79.385858L398.868687 414.642424l-57.276768 99.167677c-19.006061 32.969697-25.858586 70.723232-19.264646 106.149495 6.981818 37.365657 27.79798 67.749495 58.828283 85.591919 18.230303 10.472727 38.529293 15.90303 59.474747 15.90303 14.480808 0 29.349495-2.585859 43.959596-7.757575 34.133333-12.024242 63.353535-36.719192 82.359596-69.818182l113.907071-197.430303-56.371718-32.581818-113.90707 197.430303c-11.248485 19.523232-28.185859 34.133333-47.579798 40.985858-17.583838 6.206061-35.167677 5.042424-49.389899-3.10303-14.222222-8.145455-23.919192-22.884848-27.410101-41.244444-3.749495-20.169697 0.387879-42.149495 11.636363-61.672728l57.276768-99.167677 81.19596-140.670707c35.814141-62.060606 109.123232-86.884848 163.555555-55.595959 25.729293 14.868687 43.571717 40.339394 50.29495 71.628283 6.852525 32.581818 1.034343 67.361616-16.678788 97.874747l-83.135354 144.032323-55.20808 95.676768c-24.048485 41.761616-61.672727 72.274747-105.761617 85.979798-43.183838 13.446465-87.40202 8.921212-124.509091-12.412121-37.236364-21.462626-63.224242-57.535354-73.179798-101.624243-10.214141-44.993939-2.456566-92.70303 21.59192-134.464646l114.682828-198.593939-56.371717-32.581819-114.682828 198.59394c-32.323232 55.983838-42.537374 120.371717-28.703031 181.39798 13.963636 61.931313 50.941414 112.872727 104.080808 143.515151 33.09899 19.135354 69.947475 28.832323 107.830303 28.832323 22.755556 0 45.769697-3.490909 68.525253-10.60202 59.733333-18.618182 110.545455-59.60404 142.868687-115.587879l146.618182-253.931313-0.517172-0.258586C817.131313 397.705051 822.949495 352.323232 813.89899 309.139394z" p-id="1588"></path></svg>