
<svg width="200" height="200" viewBox="0 0 200 200" version="1.1" xmlns="http://www.w3.org/2000/svg" xmlns:xlink="http://www.w3.org/1999/xlink"><g class="transform-group"><g transform="scale(0.1953125, 0.1953125)"><path d="M208.191134 58.038858l413.571247 0c9.664104 0 18.336624 3.469008 24.531719 9.911744l252.751514 252.999155c6.938016 6.690376 10.408047 15.610536 10.408047 24.531719l0 0.74292 0 526.56574c0 25.52228-10.408047 48.815799-27.257807 65.914222l0 0.24764-0.992607 0.494257c-16.84976 16.60212-40.142256 26.513864-65.417919 26.513864L208.191134 965.960119c-25.770943 0-49.063439-9.912767-66.160839-27.009144l0-0.24764 0 0.24764c-16.60212-17.098423-27.504424-40.639582-27.504424-66.161862L114.525871 151.20884c0-25.523303 10.902304-48.815799 27.504424-65.913199C158.880055 68.445882 182.172551 58.038858 208.191134 58.038858L208.191134 58.038858zM514.46668 231.000118 514.46668 231.000118c8.176217-8.42488 21.310352-8.42488 29.735232 0 7.9296 8.17724 7.9296 21.310352 0 29.735232l-37.168528 36.921911L507.033383 453.767737c0 11.398608-9.664104 21.062711-21.062711 21.062711l-0.743944 0L258.246157 474.830449c-11.398608 0-21.310352-9.664104-21.310352-21.062711l0-0.49528L236.935806 225.795583c0-11.398608 9.912767-21.062711 21.310352-21.062711l0.49528 0 227.229235 0c11.398608 0 21.062711 9.664104 21.062711 21.062711l0 0.74292 0 11.894911L514.46668 231.000118 514.46668 231.000118zM464.906937 339.78166 464.906937 339.78166l-59.966767 59.966767c-8.17724 8.17724-21.310352 8.17724-29.735232 0l-69.38323-69.629847c-8.42488-8.17724-8.42488-21.557992 0-29.239951 7.9296-8.67252 21.310352-8.67252 29.735232 0l54.266951 54.514591 75.082022-75.082022 0-33.45188L278.812565 246.859317l0 186.342012 186.094372 0L464.906937 339.78166 464.906937 339.78166zM258.246157 549.167504 258.246157 549.167504l0.49528 0 227.229235 0c11.398608 0 21.062711 9.664104 21.062711 21.063735l0 0.49528 0 227.475851c0 11.398608-9.664104 21.061688-21.062711 21.061688l-0.743944 0L258.246157 819.264059c-11.398608 0-21.310352-9.66308-21.310352-21.061688l0-0.49528L236.935806 570.231239C236.935806 558.832631 246.847549 549.167504 258.246157 549.167504L258.246157 549.167504zM464.906937 590.798671 464.906937 590.798671 278.812565 590.798671l0 186.342012 186.094372 0L464.906937 590.798671 464.906937 590.798671zM839.574129 366.790804 839.574129 366.790804 680.488901 366.790804c-22.054295 0-41.630143-9.1678-56.002478-23.292496l-1.485841-1.982144c-13.380752-14.124695-22.301935-33.205263-22.301935-54.514591L600.698646 127.421065 208.191134 127.421065c-6.690376 0-12.389168 2.973728-16.84976 7.43432-3.965312 3.965312-6.938016 9.911744-6.938016 16.35448l0 721.580273c0 6.442736 2.973728 12.389168 6.938016 16.84976l0 0c4.211928 3.965312 10.159384 6.939039 16.84976 6.939039l607.594195 0c6.443759 0 12.390191-2.726088 16.84976-6.939039l0 0c4.213975-4.459568 6.939039-10.407024 6.939039-16.84976L839.574129 366.790804 839.574129 366.790804zM803.891442 324.666404 803.891442 324.666404 642.825093 163.103752l0 123.897821c0 9.664104 3.716648 18.831904 9.912767 25.770943l0.99056 0.99056c6.938016 6.690376 16.35448 10.903328 26.761504 10.903328L803.891442 324.666404 803.891442 324.666404z" fill=""></path></g></g></svg>