
<svg class="icon" width="200px" height="200.00px" viewBox="0 0 1024 1024" version="1.1" xmlns="http://www.w3.org/2000/svg"><path  d="M512 64C265.6 64 64 265.6 64 512s201.6 448 448 448 448-201.6 448-448S758.4 64 512 64z m0 832C300.8 896 128 723.2 128 512S300.8 128 512 128s384 172.8 384 384-172.8 384-384 384z"  /><path  d="M384 480c19.2 0 32-16 32-32v-64c0-19.2-12.8-32-32-32s-32 16-32 32v64c0 19.2 12.8 32 32 32zM640 480c19.2 0 32-16 32-32v-64c0-19.2-12.8-32-32-32s-32 16-32 32v64c0 19.2 12.8 32 32 32zM662.4 598.4c-12.8 0-25.6 6.4-28.8 19.2-16 51.2-64 86.4-121.6 86.4s-105.6-35.2-121.6-86.4c-6.4-12.8-16-19.2-28.8-19.2-19.2 0-32 12.8-32 32 0 6.4 0 9.6 3.2 16 28.8 70.4 96 121.6 179.2 121.6 83.2 0 153.6-51.2 179.2-124.8 0-3.2 0-3.2 3.2-6.4v-6.4c0-19.2-12.8-32-32-32z"  /></svg>