
<svg t="1535531930919" class="icon" style="" viewBox="0 0 1024 1024" version="1.1" xmlns="http://www.w3.org/2000/svg" p-id="7552" xmlns:xlink="http://www.w3.org/1999/xlink" width="200" height="200"><path d="M443.746475 705.439744C481.441856 755.700252 542.291056 756.056371 580.253525 705.439744L785.079808 432.338033C822.775188 382.077525 802.022377 341.333333 739.070282 341.333333L284.929718 341.333333C221.823977 341.333333 200.957723 381.721408 238.920191 432.338033L443.746475 705.439744 443.746475 705.439744ZM56.888889 113.498413 56.888889 113.498413 56.888889 910.501586C56.888889 941.786163 82.21918 967.111111 113.498413 967.111111L910.501586 967.111111C941.786163 967.111111 967.111111 941.780821 967.111111 910.501586L967.111111 113.498413C967.111111 82.213839 941.780821 56.888889 910.501586 56.888889L113.498413 56.888889C82.213839 56.888889 56.888889 82.21918 56.888889 113.498413L56.888889 113.498413ZM0 113.498413C0 50.81497 50.780319 0 113.498413 0L910.501586 0C973.18503 0 1024 50.780319 1024 113.498413L1024 910.501586C1024 973.18503 973.219681 1024 910.501586 1024L113.498413 1024C50.81497 1024 0 973.219681 0 910.501586L0 113.498413 0 113.498413Z" p-id="7553"></path></svg>