<svg width="32px" height="32px" viewBox="0 0 32 32" version="1.1">
    <g id="Group" fill="#FFFFFF">
        <path d="M6,10 L14,10 L14,5 C14,4.44771525 14.4477153,4 15,4 C15.5522847,4 16,4.44771525 16,5 L16,17 C16,17.5522847 15.5522847,18 15,18 C14.4477153,18 14,17.5522847 14,17 L14,12 L6,12 L6,17 C6,17.5522847 5.55228475,18 5,18 C4.44771525,18 4,17.5522847 4,17 L4,5 C4,4.44771525 4.44771525,4 5,4 C5.55228475,4 6,4.44771525 6,5 L6,10 Z M20,13.3839615 L19.4613205,13.922641 C19.0707962,14.3131653 18.4376312,14.3131653 18.0471069,13.922641 C17.6565826,13.5321167 17.6565826,12.8989517 18.0471069,12.5084274 L20.1684273,10.3871071 C20.2206723,10.3348621 20.27726,10.2896065 20.3370284,10.2513403 C20.513499,10.0949515 20.745661,10 21,10 C21.5522847,10 22,10.4477153 22,11 L22,17 C22,17.5522847 21.5522847,18 21,18 C20.4477153,18 20,17.5522847 20,17 L20,13.3839615 Z M3,21 L29,21 C29.5522847,21 30,21.4477153 30,22 C30,22.5522847 29.5522847,23 29,23 L3,23 C2.44771525,23 2,22.5522847 2,22 C2,21.4477153 2.44771525,21 3,21 Z M3,26 L25,26 C25.5522847,26 26,26.4477153 26,27 C26,27.5522847 25.5522847,28 25,28 L3,28 C2.44771525,28 2,27.5522847 2,27 C2,26.4477153 2.44771525,26 3,26 Z" id="Combined-Shape"></path>
    </g>
</svg>