
<svg width="200px" height="200.00px" viewBox="0 0 1024 1024"><path d="M880 816h-576c-16 0-32 12.8-32 32s12.8 32 32 32h576c16 0 32-12.8 32-32s-12.8-32-32-32zM880 688h-576c-16 0-32 12.8-32 32s12.8 32 32 32h576c16 0 32-12.8 32-32s-12.8-32-32-32zM880 144h-736c-16 0-32 12.8-32 32v160c0 19.2 12.8 32 32 32h736c16 0 32-12.8 32-32v-160c0-19.2-12.8-32-32-32z m-32 160h-672v-96h672v96zM880 560h-576c-16 0-32 12.8-32 32s12.8 32 32 32h576c16 0 32-12.8 32-32s-12.8-32-32-32zM880 432h-576c-16 0-32 12.8-32 32s12.8 32 32 32h576c16 0 32-12.8 32-32s-12.8-32-32-32z"/></svg>
