<svg class="icon" width="200px" height="200.00px" viewBox="0 0 1024 1024" version="1.1" xmlns="http://www.w3.org/2000/svg"><path  d="M768 320c0-140.8-115.2-256-256-256s-256 115.2-256 256c0 89.6 44.8 169.6 115.2 214.4C192 592 64 761.6 64 960h64c0-211.2 172.8-384 384-384 140.8 0 256-115.2 256-256z m-256 192c-105.6 0-192-86.4-192-192s86.4-192 192-192 192 86.4 192 192-86.4 192-192 192zM883.2 838.4c28.8-32 44.8-73.6 44.8-118.4 0-96-80-176-176-176S576 624 576 720s80 176 176 176c28.8 0 57.6-6.4 80-19.2l73.6 73.6c12.8 12.8 32 12.8 44.8 0 12.8-12.8 12.8-32 0-44.8l-67.2-67.2z m-134.4-9.6c-60.8 0-112-51.2-112-112s51.2-112 112-112 112 51.2 112 112c0 64-48 112-112 112z"  /></svg>
