
<svg t="1509612448791" class="icon" style="" viewBox="0 0 1024 1024" version="1.1" xmlns="http://www.w3.org/2000/svg" p-id="4355" xmlns:xlink="http://www.w3.org/1999/xlink" width="200" height="200">
  <path d="M64 64h32v32H64V64z m64 0h32v32H128V64z m64 0h32v32H192V64z m64 0h32v32H256V64z m64 0h32v32h-32V64z m64 0h32v32h-32V64z m64 0h32v32h-32V64z m64 0h32v32h-32V64z m64 0h32v32h-32V64z m64 0h32v32h-32V64z m64 0h32v32h-32V64z m64 0h32v32h-32V64z m64 0h32v32h-32V64z m64 0h32v32h-32V64zM64 928h32v32H64v-32z m96 0h32v32H160v-32z m64 0h32v32H224v-32z m64 0h32v32H288v-32z m64 0h32v32h-32v-32z m64 0h32v32h-32v-32z m64 0h32v32h-32v-32z m64 0h32v32h-32v-32z m64 0h32v32h-32v-32z m64 0h32v32h-32v-32z m64 0h32v32h-32v-32z m64 0h32v32h-32v-32z m64 0h32v32h-32v-32z m64 0h32v32h-32v-32zM96 96v32H64V96h32z m0 64v32H64V160h32z m0 64v32H64V224h32z m0 64v32H64V288h32z m0 64v32H64v-32h32z m0 64v32H64v-32h32z m0 64v32H64v-32h32z m0 64v32H64v-32h32z m0 64v32H64v-32h32z m0 64v32H64v-32h32z m0 64v32H64v-32h32z m0 64v32H64v-32h32z m0 64v32H64v-32h32z m32 64v32H96v-32h32zM960 64v32h-32V64h32z m0 64v32h-32V128h32z m0 64v32h-32V192h32z m0 64v32h-32V256h32z m0 64v32h-32v-32h32z m0 64v32h-32v-32h32z m0 64v32h-32v-32h32z m0 64v32h-32v-32h32z m0 64v32h-32v-32h32z m0 64v32h-32v-32h32z m0 64v32h-32v-32h32z m0 64v32h-32v-32h32z m0 64v32h-32v-32h32z m0 64v32h-32v-32h32zM160 160h704v320H160V160z m64 64v192h576V224H224z m64 64h64v64H288V288zM160 544h704v320H160V544z m64 64v192h576v-192H224z m464 128L640 672h96l-48 64z" p-id="4356"></path>
</svg>