<svg viewBox="0 0 1024 1024" version="1.1" xmlns="http://www.w3.org/2000/svg" width="200" height="200">
  <path d="M188.852694 347.173001m-58.325383 0a56.997 56.997 0 1 0 116.650767 0 56.997 56.997 0 1 0-116.650767 0Z"></path>
  <path d="M304.047296 321.590346c-5.628184 0-10.233062 4.604878-10.233062 10.233062l0 30.699186c0 5.628184 4.604878 10.233062 10.233062 10.233062l579.191308 0c5.628184 0 10.233062-4.604878 10.233062-10.233062l0-30.699186c0-5.628184-4.604878-10.233062-10.233062-10.233062L304.047296 321.590346z"></path>
  <path d="M188.852694 541.206182m-58.325383 0a56.997 56.997 0 1 0 116.650767 0 56.997 56.997 0 1 0-116.650767 0Z"></path>
  <path d="M293.814234 556.555775c0 5.628184 4.604878 10.233062 10.233062 10.233062l579.191308 0c5.628184 0 10.233062-4.604878 10.233062-10.233062l0-30.699186c0-5.628184-4.604878-10.233062-10.233062-10.233062l-579.191308 0c-5.628184 0-10.233062 4.604878-10.233062 10.233062L293.814234 556.555775z"></path>
  <path d="M188.852694 735.23834m-58.325383 0a56.997 56.997 0 1 0 116.650767 0 56.997 56.997 0 1 0-116.650767 0Z"></path>
  <path d="M293.814234 750.58691c0 5.628184 4.604878 10.233062 10.233062 10.233062l579.191308 0c5.628184 0 10.233062-4.604878 10.233062-10.233062l0-30.699186c0-5.628184-4.604878-10.233062-10.233062-10.233062l-579.191308 0c-5.628184 0-10.233062 4.604878-10.233062 10.233062L293.814234 750.58691z"></path>
</svg>