
<svg class="icon" width="200px" height="200.00px" viewBox="0 0 1024 1024" version="1.1" xmlns="http://www.w3.org/2000/svg"><path  d="M224 672H160c-19.2 0-32 16-32 32v64c0 19.2 16 32 32 32h64c19.2 0 32-16 32-32v-64c0-19.2-16-32-32-32zM352 320h512c16 0 32-12.8 32-32s-12.8-32-32-32H352c-16 0-32 12.8-32 32s12.8 32 32 32zM224 448H160c-19.2 0-32 16-32 32v64c0 19.2 16 32 32 32h64c19.2 0 32-16 32-32v-64c0-19.2-16-32-32-32zM864 480H352c-16 0-32 12.8-32 32s12.8 32 32 32h512c16 0 32-12.8 32-32s-12.8-32-32-32zM864 704H352c-16 0-32 12.8-32 32s12.8 32 32 32h512c16 0 32-12.8 32-32s-12.8-32-32-32zM224 224H160c-19.2 0-32 16-32 32v64c0 19.2 16 32 32 32h64c19.2 0 32-16 32-32V256c0-19.2-16-32-32-32z"  /></svg>
