
<svg class="icon" width="200px" height="200.00px" viewBox="0 0 1024 1024" version="1.1" xmlns="https://www.w3.org/2000/svg"><path  d="M736 89.6c83.2 51.2 112 156.8 60.8 240l-224 377.6c-32 54.4-105.6 73.6-160 41.6-54.4-32-73.6-105.6-41.6-160l179.2-304c6.4-12.8 25.6-19.2 38.4-9.6 12.8 6.4 19.2 25.6 9.6 38.4l-179.2 304c-16 28.8-6.4 64 19.2 80 28.8 16 64 6.4 80-19.2l224-377.6c32-54.4 12.8-128-41.6-160-54.4-32-128-12.8-160 41.6L275.2 636.8c-51.2 83.2-22.4 192 60.8 240 83.2 51.2 192 22.4 240-60.8l224-377.6c6.4-12.8 25.6-19.2 38.4-9.6 12.8 6.4 19.2 25.6 9.6 38.4l-224 377.6c-60.8 112-204.8 147.2-316.8 83.2C195.2 860.8 160 716.8 224 604.8l268.8-454.4C544 67.2 649.6 38.4 736 89.6z"  /></svg>