
<svg t="1535530092905" class="icon" style="" viewBox="0 0 20412 1024" version="1.1" xmlns="http://www.w3.org/2000/svg" p-id="32110" xmlns:xlink="http://www.w3.org/1999/xlink" width="3986.71875" height="200"><path d="M19901.66113 0c-221.129568 0-411.641196 139.481728-479.681063 343.601329L170.099668 343.601329c-95.255814 0-170.099668 74.843854-170.099668 170.099668 0 95.255814 74.843854 170.099668 170.099668 170.099668l19251.880399 0c71.44186 204.119601 258.551495 336.797342 479.681063 336.797342 282.365449 0 510.299003-231.335548 510.299003-513.700997l0 0 0 0C20411.960133 224.531561 20184.026578 0 19901.66113 0zM19826.817276 714.418605l-207.521595-207.521595 54.431894-54.431894 153.089701 153.089701 306.179402-306.179402 54.431894 54.431894L19826.817276 714.418605z" p-id="32111"></path></svg>