
<svg class="icon" width="200px" height="200.00px" viewBox="0 0 1024 1024" version="1.1" xmlns="http://www.w3.org/2000/svg"><path  d="M826.496 512.128a31.52 31.52 0 0 1-9.152 22.304l-90.912 90.912a31.776 31.776 0 0 1-45.056-0.192 32 32 0 0 1-0.224-45.056L749.248 512l-68.096-68.096a31.776 31.776 0 0 1 0.224-45.056 32 32 0 0 1 45.056-0.192l90.912 90.912c6.144 6.176 9.28 14.24 9.28 22.336zM197.504 512.128c0 8.128 3.072 16.224 9.152 22.304l90.912 90.912a31.776 31.776 0 0 0 45.056-0.192 32 32 0 0 0 0.224-45.056L274.752 512l68.096-68.096a31.776 31.776 0 0 0-0.224-45.056 32 32 0 0 0-45.056-0.192l-90.912 90.912a31.488 31.488 0 0 0-9.28 22.336z"  /><path  d="M480 256H160a32 32 0 0 0-32 32v448c0 17.76 14.336 32 32 32h320V256z m64 0v512h320a32 32 0 0 0 32-32V288c0-17.76-14.336-32-32-32H544zM64 255.68C64 220.544 92.8 192 127.712 192H896.32C931.488 192 960 220.736 960 255.68v512.64c0 35.168-28.8 63.68-63.712 63.68H127.68C92.512 832 64 803.264 64 768.32V255.68z"  /></svg>