<svg version="1.1" id="图层_1"
  xmlns="http://www.w3.org/2000/svg"
  xmlns:xlink="http://www.w3.org/1999/xlink" x="0px" y="0px" viewBox="0 0 32 32" style="enable-background:new 0 0 32 32;" xml:space="preserve">
  <g>
    <path d="M27.5,12h-13c-1.4,0-2.5,1.1-2.5,2.5v3c0,1.4,1.1,2.5,2.5,2.5h13c1.4,0,2.5-1.1,2.5-2.5v-3C30,13.1,28.9,12,27.5,12z
		 M29,17.5c0,0.8-0.7,1.5-1.5,1.5h-13c-0.8,0-1.5-0.7-1.5-1.5v-3c0-0.8,0.7-1.5,1.5-1.5h13c0.8,0,1.5,0.7,1.5,1.5V17.5z"/>
    <circle cx="6" cy="16" r="4"/>
  </g>
</svg>
