
<svg width="200px" height="200.00px" viewBox="0 0 1024 1024"><path d="M320 128H128c-35.2 0-64 28.8-64 64v640c0 35.2 28.8 64 64 64h192c35.2 0 64-28.8 64-64V192c0-35.2-28.8-64-64-64z m0 672c0 16-16 32-32 32H160c-16 0-32-16-32-32V224c0-16 16-32 32-32h128c16 0 32 16 32 32v576zM576 256h-64c-19.2 0-32 12.8-32 32s16 32 32 32h64c19.2 0 32-12.8 32-32s-16-32-32-32zM512 704h-64c-19.2 0-32 12.8-32 32s16 32 32 32h64c19.2 0 32-12.8 32-32s-16-32-32-32zM896 128h-192c-35.2 0-64 28.8-64 64v640c0 35.2 28.8 64 64 64h192c35.2 0 64-28.8 64-64V192c0-35.2-28.8-64-64-64z m0 672c0 16-16 32-32 32h-128c-16 0-32-16-32-32V224c0-16 16-32 32-32h128c16 0 32 16 32 32v576z"  /></svg>
