
<svg class="icon" width="200px" height="200.00px" viewBox="0 0 1024 1024" version="1.1" xmlns="http://www.w3.org/2000/svg"><path  d="M956.8 406.4c-6.4-22.4-28.8-38.4-51.2-41.6l-233.6-32-102.4-201.6c-9.6-22.4-32-35.2-57.6-35.2s-48 12.8-57.6 35.2L352 332.8l-233.6 32c-22.4 3.2-44.8 19.2-51.2 41.6-6.4 22.4-3.2 44.8 16 60.8l169.6 163.2-38.4 227.2c-3.2 22.4 6.4 44.8 25.6 57.6 12.8 9.6 25.6 12.8 38.4 12.8 9.6 0 22.4-3.2 32-6.4l204.8-105.6 204.8 105.6c9.6 6.4 19.2 6.4 32 6.4s25.6-3.2 38.4-9.6c19.2-12.8 32-35.2 25.6-57.6l-38.4-227.2 169.6-163.2c12.8-19.2 16-41.6 9.6-64z m-227.2 176l-25.6 25.6 6.4 35.2 38.4 217.6-198.4-102.4-38.4-16-35.2 19.2L275.2 864l38.4-217.6 6.4-38.4-28.8-25.6L128 428.8l227.2-32 38.4-6.4 16-35.2L512 160l99.2 195.2 16 35.2 38.4 6.4 227.2 32-163.2 153.6z"  /></svg>