
<svg  viewBox="0 0 1024 1024" version="1.1" xmlns="http://www.w3.org/2000/svg" width="200" height="200">
  <path d="M128 320h128a64 64 0 0 1 64 64v256a64 64 0 0 1-64 64H128a64 64 0 0 1-64-64v-256a64 64 0 0 1 64-64z m32 64a32 32 0 0 0-32 32v192a32 32 0 0 0 32 32h64a32 32 0 0 0 32-32v-192a32 32 0 0 0-32-32H160z m256-32h384a32 32 0 0 1 0 64H416a32 32 0 0 1 0-64z m0 128h512a32 32 0 0 1 0 64H416a32 32 0 0 1 0-64z m0 128h512a32 32 0 0 1 0 64H416a32 32 0 0 1 0-64z" fill="#333333" p-id="5699"></path>
</svg>