<?xml version="1.0" standalone="no"?><!DOCTYPE svg PUBLIC "-//W3C//DTD SVG 1.1//EN" "http://www.w3.org/Graphics/SVG/1.1/DTD/svg11.dtd"><svg t="1591336500116" class="icon" viewBox="0 0 1024 1024" version="1.1" xmlns="http://www.w3.org/2000/svg" p-id="9996" xmlns:xlink="http://www.w3.org/1999/xlink" width="16" height="16"><defs><style type="text/css"></style></defs><path d="M391.6 609.4H204.2c-50.6 0-89.2-41.9-89.2-89.9V201.9c0-50.9 41.6-89.9 89.2-89.9h190.3c50.6 0 89.2 41.9 89.2 89.9v317.6c0 50.9-41.6 89.9-92.1 89.9zM204.2 171.9c-17.9 0-29.8 15-29.8 30v317.6c0 18 14.9 30 29.8 30h190.3c17.8 0 29.8-15 29.8-30V201.9c0-18-14.9-30-29.8-30H204.2zM391.6 912H201.2c-50.6 0-89.2-38.9-89.2-89.9v-74.9c0-50.9 38.7-89.9 89.2-89.9h190.4c50.6 0 89.2 39 89.2 89.9v74.9c2.9 51-38.7 89.9-89.2 89.9zM201.2 720.2c-17.8 0-29.7 15-29.7 30v74.9c0 18 14.9 30 29.7 30h190.4c17.8 0 29.7-15 29.7-30v-74.9c0-18-14.8-30-29.7-30H201.2z m621.6-236.7H632.4c-50.5 0-89.2-39-89.2-89.9V201.9c0-50.9 38.7-89.9 89.2-89.9h190.3c50.6 0 89.2 38.9 89.2 89.9v191.8c0.1 50.9-38.6 89.8-89.1 89.8zM632.4 171.9c-14.9 0-29.7 12-29.7 30v191.8c0 15 11.9 30 29.7 30h190.3c14.9 0 29.8-12 29.8-30V201.9c0-15-11.9-30-29.8-30H632.4zM822.8 912H632.4c-50.5 0-89.2-41.9-89.2-89.9V630.3c0-50.9 41.6-89.9 89.2-89.9h190.3c50.6 0 89.2 41.9 89.2 89.9v191.8c0.1 51-38.6 89.9-89.1 89.9zM632.4 600.4c-17.8 0-29.7 15-29.7 30v191.8c0 18 14.9 30 29.7 30h190.3c17.8 0 29.8-15 29.8-30V630.3c0-18-14.9-30-29.8-30H632.4z m0 0" p-id="9997"></path></svg>