
<svg t="1535530585528" class="icon" style="" viewBox="0 0 1024 1024" version="1.1" xmlns="http://www.w3.org/2000/svg" p-id="40079" data-spm-anchor-id="a313x.7781069.0.i7" xmlns:xlink="http://www.w3.org/1999/xlink" width="200" height="200"><path d="M532.54999971 609.40000039a23.55000029 23.55000029 0 0 1 0-33.3500001l56.1999999-56.1999999-56.1999999-56.20000078a23.55000029 23.55000029 0 0 1 33.3500001-33.3l72.8499999 72.85000078a23.55000029 23.55000029 0 0 1 0 33.3l-72.84999991 72.9a23.55000029 23.55000029 0 0 1-33.35000009 0zM112.0000001 62h299.99999971a50.0000001 50.0000001 0 0 1 50.00000009 50.0000001v799.9999998a50.0000001 50.0000001 0 0 1-50.00000009 50.0000001H112.0000001a50.0000001 50.0000001 0 0 1-50.0000001-50.0000001V112.0000001a50.0000001 50.0000001 0 0 1 50.0000001-50.0000001z m649.99999951 0h150.00000029a50.0000001 50.0000001 0 0 1 50.0000001 50.0000001v799.9999998a50.0000001 50.0000001 0 0 1-50.0000001 50.0000001h-150.00000029a50.0000001 50.0000001 0 0 1-49.99999922-50.0000001V112.0000001a50.0000001 50.0000001 0 0 1 49.99999922-50.0000001zM112.0000001 136.99999971v750.00000058a24.99999961 24.99999961 0 0 0 24.99999961 24.99999961h250.00000048a24.99999961 24.99999961 0 0 0 24.99999962-24.99999961v-750.00000058a24.99999961 24.99999961 0 0 0-24.99999961-24.99999961h-250.00000049a24.99999961 24.99999961 0 0 0-24.99999961 24.99999961z m649.99999951 0v750.00000058a24.99999961 24.99999961 0 0 0 25.00000049 24.99999961h100.00000019a24.99999961 24.99999961 0 0 0 24.99999961-24.99999961v-750.00000058a24.99999961 24.99999961 0 0 0-24.99999961-24.99999961h-100.00000019a24.99999961 24.99999961 0 0 0-25.00000049 24.99999961z" fill="#2c2c2c" p-id="40080" data-spm-anchor-id="a313x.7781069.0.i5" class="selected"></path></svg>