
<svg t="1528189372777" class="icon" style="" viewBox="0 0 1024 1024" version="1.1" xmlns="http://www.w3.org/2000/svg" p-id="3104" xmlns:xlink="http://www.w3.org/1999/xlink" width="200" height="200">
<path d="M736 512H512V288c0-17.92-14.08-32-32-32s-32 14.08-32 32v256c0 17.92 14.08 32 32 32h256c17.92 0 32-14.08 32-32s-14.08-32-32-32zM480 64C215.04 64 0 279.04 0 544c0 264.96 215.04 480 480 480 264.96 0 480-215.04 480-480 0-264.96-215.04-480-480-480z m0 896C250.24 960 64 773.76 64 544s186.24-416 416-416 416 186.24 416 416-186.24 416-416 416z" p-id="3105"></path></svg>