<svg version="1.1" xmlns="http://www.w3.org/2000/svg" width="1024" height="1024" viewBox="0 0 1024 1024">
  <path fill="#ecf0f1" d="M381.12 112.837 163.879 112.837c-58.562 0-106.09 47.529-106.09 106.09l0 588.146c0 58.561 47.528 106.088 106.09 106.088L381.12 913.161c58.56 0 106.09-47.527 106.09-106.088L487.21 218.928C487.21 160.366 439.68 112.837 381.12 112.837L381.12 112.837zM434.165 807.074c0 29.333-23.711 53.043-53.045 53.043L163.879 860.117c-29.28 0-53.045-23.71-53.045-53.043L110.834 218.928c0-29.28 23.766-53.045 53.045-53.045L381.12 165.883c29.332 0 53.045 23.765 53.045 53.045L434.165 807.074 434.165 807.074z" />
  <path fill="#ecf0f1" d="M861.12 112.837 643.879 112.837c-58.562 0-106.09 47.529-106.09 106.09l0 588.146c0 58.561 47.528 106.088 106.09 106.088L861.12 913.161c58.56 0 106.09-47.527 106.09-106.088L967.21 218.928C967.21 160.366 919.68 112.837 861.12 112.837L861.12 112.837zM914.165 807.074c0 29.333-23.711 53.043-53.045 53.043L643.879 860.117c-29.28 0-53.045-23.71-53.045-53.043L590.834 218.928c0-29.28 23.766-53.045 53.045-53.045L861.12 165.883c29.332 0 53.045 23.765 53.045 53.045L914.165 807.074 914.165 807.074z" />
</svg>
