
<svg class="icon" width="200px" height="200.00px" viewBox="0 0 1024 1024" version="1.1" xmlns="http://www.w3.org/2000/svg"><path  d="M934.4 489.6l-227.2-227.2c-12.8-12.8-32-12.8-44.8 0-12.8 12.8-12.8 32 0 44.8l204.8 204.8-204.8 204.8c-12.8 12.8-12.8 32 0 44.8 12.8 12.8 32 12.8 44.8 0l227.2-227.2c6.4-6.4 9.6-16 9.6-22.4 0-9.6-3.2-16-9.6-22.4z"  /><path  d="M646.4 489.6l-227.2-227.2c-12.8-12.8-32-12.8-44.8 0-12.8 12.8-12.8 32 0 44.8l204.8 204.8-204.8 204.8c-12.8 12.8-12.8 32 0 44.8 12.8 12.8 32 12.8 44.8 0l227.2-227.2c6.4-6.4 9.6-16 9.6-22.4 0-9.6-3.2-16-9.6-22.4z"  /><path  d="M358.4 489.6l-224-227.2c-12.8-12.8-32-12.8-44.8 0-12.8 12.8-12.8 32 0 44.8L291.2 512l-204.8 204.8c-12.8 12.8-12.8 32 0 44.8 12.8 12.8 32 12.8 44.8 0l227.2-227.2c6.4-6.4 9.6-16 9.6-22.4 0-9.6-3.2-16-9.6-22.4z"  /></svg>