
<svg t="1527491376417" class="icon" style="" viewBox="0 0 1024 1024" version="1.1" xmlns="http://www.w3.org/2000/svg" p-id="6927" xmlns:xlink="http://www.w3.org/1999/xlink" width="200" height="200">
<path d="M1018.25 497.8l-1.4-1.4c-0.3-0.3-0.5-0.5-0.8-0.7L869.75 349.4c-7.8-7.8-20.5-7.8-28.3 0l-1.4 1.4c-7.8 7.8-7.8 20.5 0 28.3L972.95 512 840.05 644.9c-7.8 7.8-7.8 20.5 0 28.3l1.4 1.4c7.8 7.8 20.5 7.8 28.3 0L1016.05 528.3c0.3-0.2 0.5-0.5 0.8-0.7l1.4-1.4c3.9-3.9 5.8-9 5.8-14.2 0-5.1-1.9-10.3-5.8-14.2zM182.65 496.4c-0.3-0.3-0.5-0.5-0.8-0.7L35.55 349.4c-7.8-7.8-20.5-7.8-28.3 0l-1.4 1.4c-7.8 7.8-7.8 20.5 0 28.3L138.75 512 5.85 644.9c-7.8 7.8-7.8 20.5 0 28.3l1.4 1.4c7.8 7.8 20.5 7.8 28.3 0l146.3-146.3c0.3-0.2 0.5-0.5 0.8-0.7l1.4-1.4c3.9-3.9 5.8-9 5.8-14.2 0-5.1-1.9-10.3-5.8-14.2l-1.4-1.4zM599.75 496.4c-0.3-0.3-0.5-0.5-0.8-0.7L452.65 349.4c-7.8-7.8-20.5-7.8-28.3 0l-1.4 1.4c-7.8 7.8-7.8 20.5 0 28.3L555.85 512 422.95 644.9c-7.8 7.8-7.8 20.5 0 28.3l1.4 1.4c7.8 7.8 20.5 7.8 28.3 0l146.3-146.3c0.3-0.2 0.5-0.5 0.8-0.7l1.4-1.4c3.9-3.9 5.8-9 5.8-14.2 0-5.1-1.9-10.3-5.8-14.2l-1.4-1.4zM377.35 491h-110c-11 0-20 9-20 20v2c0 11 9 20 20 20h110c11 0 20-9 20-20v-2c0-11-9-20-20-20zM808.35 491h-110c-11 0-20 9-20 20v2c0 11 9 20 20 20h110c11 0 20-9 20-20v-2c0-11-9-20-20-20z" p-id="6928"></path>
</svg>