
<?xml version="1.0" standalone="no"?><!DOCTYPE svg PUBLIC "-//W3C//DTD SVG 1.1//EN" "http://www.w3.org/Graphics/SVG/1.1/DTD/svg11.dtd"><svg class="icon" width="200px" height="200.00px" viewBox="0 0 1024 1024" version="1.1" xmlns="http://www.w3.org/2000/svg"><path fill="#333333" d="M896 64H128c-35.2 0-64 28.8-64 64v96c0 35.2 28.8 64 64 64h768c35.2 0 64-28.8 64-64V128c0-35.2-28.8-64-64-64z m0 144c0 9.6-6.4 16-16 16h-736c-9.6 0-16-6.4-16-16v-64c0-9.6 6.4-16 16-16h736c9.6 0 16 6.4 16 16v64zM768 320H128c-35.2 0-64 28.8-64 64v512c0 35.2 28.8 64 64 64h640c35.2 0 64-28.8 64-64V384c0-35.2-28.8-64-64-64z m0 544c0 19.2-16 32-32 32H160c-16 0-32-12.8-32-32V416c0-19.2 16-32 32-32h576c16 0 32 12.8 32 32v448z"  /><path fill="#333333" d="M656 736h-416c-9.6 0-16 6.4-16 16v32c0 9.6 6.4 16 16 16h416c9.6 0 16-6.4 16-16v-32c0-9.6-6.4-16-16-16zM656 480h-416c-9.6 0-16 6.4-16 16v32c0 9.6 6.4 16 16 16h416c9.6 0 16-6.4 16-16v-32c0-9.6-6.4-16-16-16zM656 608h-416c-9.6 0-16 6.4-16 16v32c0 9.6 6.4 16 16 16h416c9.6 0 16-6.4 16-16v-32c0-9.6-6.4-16-16-16z"  /></svg>