<?xml version="1.0" standalone="no"?><!DOCTYPE svg PUBLIC "-//W3C//DTD SVG 1.1//EN" "http://www.w3.org/Graphics/SVG/1.1/DTD/svg11.dtd"><svg t="1528614612051" class="icon" style="" viewBox="0 0 1024 1024" version="1.1" xmlns="http://www.w3.org/2000/svg" p-id="3242" xmlns:xlink="http://www.w3.org/1999/xlink" width="200" height="200"><path d="M341.270528 483.468288l2.269184 0.750592c0.730112 3.365888 2.633728 1.866752 4.461568 0.749568C348.00128 488.718336 339.038208 489.834496 341.270528 483.468288zM401.197056 538.528768c-0.364544 1.885184-0.364544 1.885184-2.598912 1.885184l0.770048-2.63168L401.197056 538.528768zM376.868864 509.318144l-4.134912 0.74752C373.09952 507.066368 376.098816 503.70048 376.868864 509.318144zM372.001792 510.065664c-2.269184 0-6.365184 1.11616-4.499456-4.115456C370.501632 506.7008 372.36736 507.814912 372.001792 510.065664zM366.733312 491.700224c-3.364864 0-10.09664-2.981888-11.964416-5.98016 3.367936 0 6.7328 1.499136 8.598528-2.250752 8.633344 1.11616 9.365504 6.7328 16.134144 6.7328 1.133568 2.250752 8.230912 7.5008 1.50016 8.250368C375.733248 498.817024 369.002496 495.834112 366.733312 491.700224zM396.00128 507.449344c-1.171456 2.23232-10.133504 1.867776-11.266048-0.748544 3.36384 0 5.997568 1.481728 9.36448 0 0-1.88416-1.50016-3.38432-2.633728-5.250048 3.364864 0 7.498752 2.615296 12.365824 2.615296 0-3.00032-1.097728 0.750592 0-3.364864 2.26816 0.749568 7.133184 5.249024 7.498752 7.481344C403.831808 507.449344 403.831808 507.449344 396.00128 507.449344zM421.100544 505.950208c1.828864 0 3.36384 0.750592 3.36384 2.23232C422.56384 508.182528 419.929088 510.065664 421.100544 505.950208zM582.551552 261.30432l-27.730944 0c-7.86944 0-13.867008-6.367232-13.867008-13.865984 0-7.482368 5.997568-13.848576 13.867008-13.848576l27.730944 0c7.5008 0 13.86496 6.366208 13.86496 13.848576C596.416512 254.937088 590.052352 261.30432 582.551552 261.30432zM636.88192 332.480512c0 1.499136-3.367936 2.999296-3.770368 0.750592 0.402432 0 0.769024 0 0.402432-0.750592L636.88192 332.480512zM639.111168 289.400832c5.231616 0 0.768 4.115456-0.769024 4.115456 1.17248 0.384 0 3.386368 0 4.50048 4.903936 0 4.903936-2.999296 8.636416-4.11648-0.733184 4.501504-5.636096 5.61664-0.733184 9.365504 2.632704 1.867776 5.231616 4.11648 4.097024 7.5008 6.367232 0 7.13728 5.98016 6.001664 13.097984 3.36384 0 3.36384 0 3.36384-3.366912 3.36896 1.11616 3.002368 4.115456 0 4.115456-3.36384 6.001664-11.595776 6.001664-17.231872 6.001664-0.364544-4.867072-1.133568-5.249024-5.595136-3.750912-5.999616 1.885184-1.135616-4.866048-1.135616-8.231936 0.768 0 13.867008 0.365568 5.999616-2.250752-0.403456-7.114752-2.231296-8.999936-8.634368-8.999936 0-4.865024-1.865728-4.499456-2.596864-10.115072C629.380096 289.400832 636.51328 298.015744 639.111168 289.400832zM614.37952 316.382208c-6.730752-1.499136 6.767616-3.382272 7.134208-5.249024-1.901568 0-3.731456-2.249728-2.632704-4.115456 0.731136-2.248704 2.632704 2.61632 4.865024 1.499136 2.632704 0 7.867392-4.133888 5.231616 3.73248-2.598912 7.885824-5.231616 13.500416-15.32928 13.500416C610.245632 322.36544 613.648384 320.498688 614.37952 316.382208zM685.576192 375.579648c3.00032 1.480704 4.499456 0.748544 4.133888-1.501184 3.73248 1.501184-0.769024 4.482048-1.538048 7.482368C686.342144 379.31008 686.711808 378.944512 685.576192 375.579648zM688.941056 383.443968c2.597888 0 3.364864 12.348416-4.134912 10.116096 0-2.999296-1.86368-8.614912 2.270208-8.614912C688.172032 389.426176 688.941056 387.5584 688.941056 383.443968zM702.80704 403.291136c1.097728-3.749888 3.364864-0.748544 5.634048 0 4.829184 1.50016 3.366912 0 7.097344-1.864704C715.538432 412.292096 709.173248 404.042752 702.80704 403.291136zM846.65856 551.645184c0.734208 0.384 7.10144 0 7.10144-1.11616 5.997568 0 13.499392-0.749568 19.499008-2.633728 0 8.61696-7.5008 13.50144-5.999616 21.731328-4.866048 0-2.962432 5.252096-2.962432 6.752256-3.00032 1.865728-3.403776 5.61664-7.135232 7.481344 0 3.749888-8.636416 10.116096-11.229184 13.500416-2.635776 3.364864-11.63776 10.115072-12.735488 14.596096 0.365568-1.115136-15.731712 16.867328-12.00128 16.867328 0 3.364864-4.499456 29.597696 1.46432 29.597696 0 2.61632 4.903936 24.730624 1.90464 24.730624 0 7.117824-4.502528 11.616256-4.502528 17.229824-2.230272 1.504256-5.59616 2.251776-6.767616 4.48512-4.096 0-5.960704 8.634368-7.829504 8.634368 0 9.363456-2.999296 16.098304-2.999296 26.597376 0.734208 0-5.269504 14.98112-5.269504 16.09728-4.866048 3.001344-17.195008 14.98112-17.195008 20.982784l-10.13248 13.865984c-2.235392 0-22.501376 3.748864-22.501376 5.249024-4.099072 0-15.367168 3.733504-17.96608-0.384 0-4.501504-2.229248-9.730048-2.634752-15.367168-1.86368 0-2.228224-8.614912-4.498432-8.614912 0-1.864704-12.732416-27.346944-10.829824-27.346944 0-2.618368-2.267136-11.232256-2.632704-11.232256 0-9.00096-6.731776-16.48128-6.731776-25.099264-1.901568 0-5.997568-18.363392-3.76832-18.363392 0-9.732096 3.367936-16.098304 4.866048-26.966016 1.50016-12.000256-0.733184-19.116032-3.00032-27.346944-1.096704 0-4.866048-6.365184-5.230592-8.250368-5.231616-3.364864-7.498752-10.479616-7.498752-17.232896 3.729408-3.749888 4.862976-18.731008 4.096-23.596032-6.7328-3.38432-9.366528-2.249728-16.463872-2.249728-4.501504-8.61696-33.330176-3.366912-41.562112-3.366912 0 4.867072-19.864576-0.749568-21.731328-4.498432-4.901888 0-14.633984-10.50112-14.633984-15.366144-5.634048-3.366912-13.830144-21.349376-13.830144-26.963968-4.901888-2.251776-3.39968-11.250688-0.766976-11.250688 0.365568-2.615296-1.867776-10.48064-2.632704-14.230528-1.134592-2.61632 2.632704-5.615616 2.632704-9.00096 0-9.365504 0-13.48096 5.230592-23.597056 1.502208-3.001344 3.73248-5.983232 5.26848-9.73312 3.00032-6.749184 3.73248-0.384 7.46496-6.36416 3.362816-1.885184 5.630976-7.8848 9.36448-10.867712 1.538048-1.88416 1.538048-3.00032 0-4.499456 0.770048 0 4.50048-10.11712 4.50048-12.731392 5.231616-7.135232 1.501184-3.750912 6.767616-3.386368 1.866752-1.864704 4.831232-7.114752 7.829504-7.114752 1.170432-2.615296 4.53632-4.115456 7.535616-4.115456 0 4.115456 10.46528-1.134592 11.96544-1.134592 1.501184-3.73248 13.498368-7.866368 16.497664-7.866368 0-4.481024 23.600128 1.135616 27.329536 0.384l0-1.883136c4.866048 1.133568 14.230528 21.36576 13.134848 25.864192 3.73248 0 7.46496-0.74752 10.09664 0 0 4.482048 7.866368 5.233664 11.635712 5.617664 5.231616 0.365568 20.195328-0.384 20.195328-7.499776 4.133888 0 7.498752 2.61632 6.766592 7.1168 4.50048 0.749568 31.060992 1.132544 29.232128 6.749184 3.733504 0 4.829184 6.749184 8.597504 6.749184-0.766976 4.48 4.501504 16.48128 8.598528 16.48128 0 4.117504 2.635776 11.232256 5.998592 13.847552 1.90464 5.633024 8.267776 17.615872 13.865984 21.36576-2.23232 4.499456 3.76832 8.614912 5.635072 13.116416-0.403456 0 1.133568 7.114752 2.999296 7.865344 0 4.865024 10.095616 23.962624 15.32928 23.962624C844.795904 550.146048 839.563264 551.28064 846.65856 551.645184zM886.759424 371.828736l-14.633984 0-0.366592-0.384c-0.733184 0-3.73248-6.7328-2.632704-8.615936l2.269184 0.384-3.733504-9.00096c-2.999296 1.885184-5.635072 4.501504-9.76896 4.868096 0 1.132544-5.961728 12.3648 0 12.3648l0 0.748544c-7.13216 0.749568-12.730368 6.367232-12.730368 13.50144 0 7.865344 6.365184 13.846528 13.86496 13.846528l5.635072 0c0.36352 2.633728 1.46432 4.885504 6.363136 5.999616 1.46432 6.367232 13.09696 8.614912 14.600192 1.865728-4.501504 0-3.001344-4.481024-2.599936-7.866368l3.733504 0c7.867392 0 13.828096-5.981184 13.828096-13.846528C900.58752 378.192896 894.626816 371.828736 886.759424 371.828736zM830.565376 523.548672c0.362496-2.61632-1.137664-3.751936-2.635776-5.999616 3.733504 0-12.00128-29.213696-12.00128-34.080768-2.23232-1.133568-5.595136-9.366528-5.998592-12.365824-3.365888-2.250752-6.728704-9.365504-7.829504-13.48096-3.365888-2.250752-11.63264-12.00128-12.730368-16.482304 4.829184 0.365568 11.962368 1.481728 11.962368-4.50048-3.365888 0-3.770368-4.117504-0.766976-4.117504-1.096704-4.133888 2.266112-7.133184 3.00032-10.114048 0.765952-3.749888 2.26816-9.751552 2.26816-14.251008-4.501504 0-5.635072 0.749568-9.365504 1.883136 0 2.61632-7.866368-0.74752-9.00096-0.74752-1.866752-3.386368-14.596096 4.498432-17.997824-2.635776-5.965824-5.231616-4.10112-8.981504-5.965824-16.482304-1.132544-3.748864-5.997568-3.748864-9.365504-4.481024-8.635392-1.883136-2.231296 10.482688-2.632704 13.097984 5.230592 0-3.36896 6.366208-3.36896 9.749504-8.997888-1.883136-5.998592-11.616256-11.230208-14.229504-1.901568-3.001344-0.36352-4.885504-4.133888-4.885504 0-3.366912 1.864704-10.116096-1.867776-11.23328 0-1.864704-7.497728-2.24768-8.63232-4.498432-4.866048 0-16.098304-17.982464-19.463168-11.982848-1.901568 3.750912 1.865728 4.867072 2.633728 7.867392 7.098368-1.50016 6.367232 11.230208 14.598144 10.116096 0 1.50016 0.365568 3.364864 0.766976 5.250048 6.368256-1.501184 5.598208 4.481024 8.597504 4.481024-2.229248 3.00032-9.36448-4.866048-7.499776 1.883136 1.13664 3.749888 0.366592 7.1168-4.499456 10.865664 0-4.133888-0.365568-15.36512-4.498432-15.36512-3.002368-6.00064-11.600896-4.499456-15.368192-9.749504-2.998272 0-4.096-9.365504-9.365504-10.097664-1.09568 1.481728-4.463616 2.61632-5.999616 2.61632-2.597888 5.614592-18.729984 0.749568-18.729984 1.499136 0 0-8.599552 20.98176-9.365504 23.59808-0.730112 5.998592-5.598208 5.998592-7.098368 11.614208-0.733184 3.002368-18.000896 1.501184-18.000896 3.749888-7.463936-2.633728-13.82912-7.865344-13.82912-15.729664-0.769024 0 1.096704-20.982784 2.633728-23.98208 1.462272 0.365568 1.828864 0.749568 2.596864 2.614272 4.501504-1.864704 15.366144 1.134592 15.366144-4.11648 4.501504 0.366592 5.597184 1.866752 3.769344 5.251072 4.463616 1.115136 11.597824 1.866752 11.597824-3.749888-2.633728 0-2.633728-0.384-2.633728-2.633728 7.866368-8.233984-6.001664-15.732736-6.001664-19.848192-2.962432-1.11616-8.59648-7.1168-4.497408-4.866048 3.362816 1.865728 16.09728 5.982208 10.899456-2.633728l0.734208-0.749568c1.50016 1.133568 7.462912 7.134208 7.462912 1.50016 1.537024 0 7.901184-4.11648 2.632704-4.11648 0.365568-3.00032 0.365568-5.249024 0.365568-7.115776 8.634368 4.501504 3.767296-3.00032 8.270848-5.999616 0 5.633024 4.460544-2.61632 7.097344-2.61632 3.36384-4.867072 10.90048-1.115136 12.730368-6.750208-4.099072-1.11616-3.365888-11.616256-3.365888-14.982144 4.903936 0.749568 10.50112-6.749184 11.271168-1.865728 0.362496 2.249728 0.362496 7.482368 1.461248 8.230912 7.135232 3.751936 5.269504-2.24768 5.269504-5.98016-2.269184 0-5.635072-8.249344-6.00064-12.3648-1.86368 0-5.267456 1.114112-5.996544 2.61632-7.10144 0-12.003328-2.61632-18.002944-2.61632-0.364544-1.134592-7.097344-8.61696-6.729728-8.61696-3.73248-7.114752 4.132864-5.250048 5.633024-5.250048 0-6.749184 27.367424-5.614592 28.464128-16.115712-9.00096 0 9.365504-15.346688 9.365504-15.346688 5.999616-5.249024 9.365504-9.750528 16.866304-10.116096 3.365888-0.384 38.962176-10.114048 38.962176-5.614592l11.234304 0.36352c-69.293056-64.444416-161.452032-103.773184-263.37792-103.773184-98.489344 0-188.414976 37.097472-256.610304 97.774592 0.729088 1.134592 1.133568 2.634752 1.133568 3.38432 3.365888 0 8.59648-2.248704 9.731072 2.250752-1.50016 0-3.365888-0.384-5.231616-0.751616 1.462272 10.116096-4.50048 4.115456-9.366528 4.115456 0-0.384-1.901568-1.13152-4.133888-1.883136l-4.499456 4.133888 0 1.11616c1.50016 0 0.731136 2.249728 5.26848 3.750912 5.229568 1.50016 10.829824 2.615296 16.09728 3.364864 4.462592 0.749568 6.731776-0.749568 10.462208-0.749568 0-0.366592 9.366528-4.483072 3.002368-4.483072 0.768-3.74784-0.733184-4.498432-4.830208-4.498432 0.365568-4.115456 9.731072-1.50016 13.463552-1.50016 2.633728-4.866048 0-4.11648 2.633728-8.61696 3.00032-5.615616 6.366208-0.748544 8.59648-5.998592 3.002368 1.134592 5.636096 2.634752 6.770688 6.750208 2.231296 1.864704 14.596096 19.847168 14.596096 7.115776 4.135936 1.499136 6.366208 9.732096 6.366208 13.867008 8.230912-1.134592 8.598528-7.1168 8.598528-13.116416 1.900544 0-0.367616-2.999296-0.367616-4.11648 3.001344-1.133568 6.367232 2.981888 6.367232-1.133568 1.499136 0 1.499136 1.133568 1.499136 2.634752 4.133888 0.731136 6.76864-0.384 9.365504 0.36352 1.866752 0.751616 0.768 9.734144 0 12.73344-1.135616 4.133888-8.59648 4.133888-8.59648 5.998592-9.001984 6.750208 10.095616 10.11712 13.09696 13.867008-1.866752 0-8.635392-0.750592-8.635392-1.134592-4.097024 0-14.59712 4.499456-18.3296 1.134592 5.231616 0 7.135232-6.366208 7.865344-12.366848-4.864-1.864704-10.86464 1.11616-12.3648 6.00064-2.26816 8.231936-7.5008-0.384-10.500096 5.231616-0.731136 0.384-10.499072 4.883456-10.499072 3.38432-10.829824 1.499136-7.82848 10.481664-7.82848 20.231168 4.097024 2.615296 13.095936 10.116096 12.3648 14.231552 9.730048 1.50016 13.463552 2.61632 22.09792 3.749888 0.731136 1.50016 3.730432 2.981888 5.230592 3.364864 0 5.61664 5.23264 4.867072 10.135552 4.867072 0-7.483392 8.194048 6.00064 9.365504 8.249344-1.171456 0 1.82784 7.483392 2.597888 10.11712-1.50016-0.385024-1.867776 0-1.50016 1.50016 4.50048 1.499136 10.865664 1.11616 12.000256-3.385344-4.134912 0-2.633728-4.864-2.633728-7.48032-4.097024-2.634752-3.366912-7.866368 0.731136-9.00096 0 3.749888 13.499392-2.61632 6.00064-5.615616 1.901568-4.11648 2.999296-10.482688 0-14.232576-1.866752-2.248704-4.463616 0-5.231616-3.382272 5.231616-1.50016 1.134592-11.23328 1.134592-16.098304 1.864704-0.749568 5.998592 1.115136 5.998592 0 5.23264 0 13.828096 6.36416 16.830464-1.134592 8.2688 3.750912 1.537024 7.498752 10.498048 4.50048 0 2.250752 10.134528 11.981824 11.23328 11.981824 0 0.384 0 3.385344 2.26816 3.385344 0 1.864704-1.499136-1.50016-1.499136 2.61632 1.132544 0 7.86432 1.13152 7.86432-1.502208 4.501504 0 7.463936-5.248 7.463936-9.365504 2.633728-1.499136 7.53664 14.615552 10.53696 14.615552 2.598912 3.750912 10.09664 9.365504 10.09664 12.73344 1.501184 1.50016 3.366912 1.133568 3.366912 5.998592 1.864704 0 5.998592-7.86432 5.998592-0.749568 1.867776 0 7.099392 4.11648 7.866368 7.499776-4.865024 0-0.402432 4.483072-2.633728 4.483072 0 4.499456-10.500096 0.748544-12.731392 0.748544-3.00032 14.251008-22.500352 3.750912-33.69472 7.501824-6.365184 2.250752-18.00192 15.366144-18.731008 22.095872 7.461888 0.386048 10.461184-6.36416 17.19296-8.614912 5.26848 0 6.367232-2.999296 11.270144-4.499456 0 1.50016 1.462272 0.749568 1.462272 1.88416-9.365504 0-3.731456 6.365184-1.097728 10.481664 1.865728 3.00032 3.731456 4.134912 5.999616 5.251072-0.73216 1.499136-1.499136 2.998272-2.26816 4.864-1.865728 0.749568-5.231616 1.88416-6.00064 3.38432-10.8288 1.11616-5.597184 0.365568-4.827136-2.250752 0.36352 1.115136 4.462592 0.366592 4.097024 0.366592-0.733184-3.366912-1.50016-3.001344-0.733184-4.866048-5.634048 0-8.633344 2.61632-13.133824 2.61632-0.768 1.883136-4.865024 5.615616-6.730752 5.615616-1.133568 3.749888-4.501504 11.250688-7.865344 13.867008 0-1.11616-9.366528 5.999616-8.635392 5.999616-2.231296 3.365888-4.461568 2.999296-5.230592 8.614912-0.768 0-3.364864 8.981504-3.364864 10.481664-4.134912 2.633728-5.636096 13.867008-12.76928 13.867008-4.462592 8.615936-11.964416 7.499776-11.964416 18.732032 2.597888 2.61632 3.76832 14.230528 4.501504 17.98144 0.731136 4.866048 2.633728 9.749504-3.73248 9.749504-0.40448-0.749568-4.903936-7.498752-4.133888-7.498752 0-2.61632-3.403776-11.23328-5.231616-14.232576-2.633728-3.383296-7.537664 0.750592-11.270144-0.749568-1.864704-3.365888-12.730368-4.115456-16.827392-4.115456 0.730112 2.614272 2.597888 3.365888 2.597888 5.981184-3.002368 1.50016-4.867072 3.00032-8.231936 2.250752-6.001664-0.750592-5.26848-5.250048-11.634688-4.501504-10.097664 1.133568-17.195008 9.365504-17.195008 19.4816-1.171456 0-1.171456 19.8656 0 19.8656 0 5.615616 4.462592 9.732096 4.462592 13.867008 4.902912 0 9.73312 10.09664 14.26944 10.09664 0.364544 3.383296-2.270208 4.134912 5.194752 3.748864 0-0.365568 4.170752-2.248704 4.537344-5.229568-5.269504-1.134592 0-7.883776 3.365888-9.365504 0 4.865024 6.731776-1.501184 6.731776-1.88416l7.498752-2.617344c0-5.249024 4.866048 0.751616 1.135616 2.617344-3.769344 0-3.365888 5.999616-5.269504 5.999616-0.730112 4.499456-2.633728 7.867392-3.731456 11.981824-1.133568 5.250048 3.00032 5.615616 1.865728 10.499072 5.231616 1.115136 10.499072 0 15.732736 0 0-0.749568 0-1.88416-0.769024-2.633728 7.902208 0 0.769024 14.614528 5.634048 14.614528 0 5.617664 2.633728 9.73312 2.633728 13.483008 3.365888 2.248704 5.634048 5.248 4.501504 9.750528 4.498432 0.746496 13.86496 1.864704 13.86496-4.134912 6.731776 0 7.463936 4.882432 6.731776 9.365504 13.463552 0 5.26848-13.097984 10.866688-13.097984 0.36352-2.251776 1.133568-2.635776 2.597888-1.133568 2.633728 1.499136 4.902912-3.00032 6.767616-4.11648 0.769024-0.384 3.365888-1.865728 3.76832-1.865728 1.828864 1.115136 1.828864 0.748544 2.963456 1.865728 3.403776 0 7.135232-1.865728 10.500096-4.115456 4.501504 0.748544 2.999296 10.86464 11.999232 11.61728 3.733504 0 12.000256 1.112064 14.963712-1.133568 0.769024-0.36864 3.76832 1.881088 4.134912 2.998272 3.001344 0 2.633728 2.61632 4.097024 2.61632 0 0.384 0.769024 0.74752 1.135616 0.384 0.402432 1.115136 2.999296 1.498112 4.132864 4.865024 0 2.61632 6.00064 3.365888 6.00064 5.251072 4.098048 2.248704-1.50016 2.61632 4.866048 4.497408 3.731456 1.118208 7.133184 2.982912 10.86464 3.36896 1.50016-4.866048 5.634048 0.74752 7.462912 0.74752 1.170432 2.251776 1.536 0.365568 2.634752 2.61632 5.999616 5.251072 2.269184 3.001344 4.498432 8.617984 3.002368 1.882112 4.135936 8.615936 4.866048 12.363776-2.230272 0-0.731136 9.365504-0.731136 10.116096-3.001344 0 7.461888 5.61664 7.461888-1.115136 4.133888 0.36352 6.767616 5.231616 9.771008 5.231616-1.502208 3.746816 4.864 6.750208 4.864 0.384 6.366208 0.74752 4.501504 10.114048 3.73248 13.48096 4.902912 0 5.998592-2.614272 10.134528-2.999296 4.499456-3.002368 8.962048-4.868096 14.59712-4.868096 15.366144 0 27.730944 12.365824 27.730944 27.71456 0 13.865984-10.50112 24.730624-23.596032 26.617856l-3.402752 3.728384c0 1.504256-0.364544 14.614528-0.73216 14.614528 0 2.61632-1.866752 17.23392-4.099072 17.23392 0 7.501824-4.901888 8.999936-6.363136 16.114688-4.134912 3.002368-15.0016 7.866368-16.904192 11.234304-2.963456 0-5.194752 2.633728-8.59648 2.633728-0.36864 0.748544-7.13728 7.114752-5.9648 7.114752-0.402432 4.864 0.365568 15.729664-2.269184 19.098624-1.499136 1.883136-4.134912 1.883136-2.999296 4.864-3.733504 0 0.364544 2.634752-5.634048 2.634752-3.73248 0-10.464256 5.231616-10.464256 9.73312-0.365568 5.613568-1.900544 9.363456-6.366208 12.749824 0 1.861632-8.633344 2.615296-8.633344 7.481344 0.730112 0 0 8.997888 0 9.749504-2.633728 0-9.00096 2.617344-10.098688 4.865024-8.633344 0-7.498752 0.75264-13.500416 4.501504 0 1.115136-0.765952 5.228544-1.864704 5.228544 0 6.752256-4.902912 0.750592-8.634368 4.135936 1.50016 0 3.365888 6.363136 2.633728 6.363136 0 5.98528-3.730432 6.36928-7.09632 10.865664-1.900544 1.118208-3.403776 5.983232-4.903936 5.983232 0 3.75296-1.864704 7.501824-1.864704 11.250688 0.769024 0 0 1.50016 0.769024 3.365888 1.828864-0.751616 1.828864-2.61632 2.59584-2.61632 0-3.38432 5.231616 1.86368 1.867776 1.86368-2.634752 4.11648-5.598208 4.11648-7.098368 9.752576-1.902592 0-3.366912 1.865728-4.50048 3.730432 32.598016 9.001984 66.695168 13.869056 102.257664 13.869056 136.389632 0 255.87712-70.428672 324.804608-176.8192 0.402432-9.750528 2.267136-19.11808 3.001344-22.116352 2.998272 1.881088 4.903936 5.634048 6.764544 0-4.865024-1.118208-3.767296-2.61632-1.860608-6.7328 1.860608 1.11616 5.595136 2.250752 8.229888 2.250752l2.59584-5.252096c-2.59584-2.24768 1.133568-7.499776 2.269184-4.862976l2.269184-4.133888-0.771072 0c0-2.251776 0.366592-2.251776 1.866752-3.369984l0 0.369664c24.367104-50.197504 38.1952-106.759168 38.1952-166.337536l-0.365568-5.981184c-0.73216 2.615296-1.865728 5.614592-3.730432 6.367232 0 1.864704-19.867648 10.114048-18.73408 13.86496-3.362816 0-15.730688 3.366912-17.999872 7.866368-2.23232 0-12.3648 3.73248-13.099008 5.233664C834.294784 537.782272 836.563968 523.548672 830.565376 523.548672zM829.063168 382.311424c0.73216-11.982848-9.76896-10.118144-13.134848-16.848896-3.36384 0-4.460544-2.633728-9.365504-2.633728-2.999296-0.750592-5.231616 0-7.09632 2.250752-7.136256 2.61632-2.6368-3.366912-8.2688-3.366912 0.401408-6.749184-2.231296-8.613888-9.734144-7.866368-4.460544 9.732096-11.229184 15.348736-10.09664 26.2144 3.002368 0.748544 2.6368 1.50016 1.866752 4.88448 4.50048 0 29.966336-1.501184 29.966336-4.135936 1.130496 0 5.26848 9.00096 5.26848 1.502208 3.729408 0 5.595136 8.249344 14.191616 5.999616C822.660096 389.810176 836.93056 382.311424 829.063168 382.311424zM805.100544 256.053248c1.097728 1.885184 1.826816 3.749888 1.463296 4.885504 1.134592 0 1.534976-0.385024 2.26816-0.751616L805.100544 256.053248zM796.83072 247.071744l-0.36352 0.366592 1.499136 0.749568L796.83072 247.071744zM236.38016 468.852736c0-4.115456-9.365504-11.230208-11.963392-11.230208 0-0.749568-3.76832-9.00096-5.26848-9.00096 0-3.00032-10.098688-16.099328-11.635712-10.481664-1.097728 3.749888 7.53664 8.615936 7.53664 13.115392 1.46432 0 8.597504 12.732416 9.731072 14.98112 14.963712 25.463808-10.901504 8.230912-10.901504-2.633728-3.366912-1.499136-8.964096-14.230528-8.964096-17.98144-1.864704-1.499136-7.498752-13.845504-7.133184-13.845504 0-7.8848-4.462592-12.000256-13.463552-12.000256l-7.902208-11.23328c0-3.00032-5.9648-13.481984-9.365504-14.98112 0-7.133184-3.366912-15.367168-1.828864-22.48192 0-7.5008-0.403456-16.115712-3.001344-23.981056-22.866944 49.828864-36.365312 104.891392-36.365312 163.335168 0 167.085056 106.023936 309.074944 254.377984 363.40224 0.40448-13.862912 1.499136-30.349312 4.501504-30.349312 0-1.862656 1.901568-10.478592 3.36384-10.478592 0-5.251072 0.364544-11.616256 0-17.982464-2.231296-4.132864 2.633728-9.001984 3.73248-15.36512 7.903232-3.750912 2.26816-42.331136 8.267776-42.331136 0-19.113984 4.098048-30.348288 1.098752-48.328704 1.536 0-8.597504-10.86464-8.597504-10.499072-9.731072 0-16.500736-15.732736-16.500736-22.464512-1.097728-3.383296-3.364864-7.883776-3.364864-11.614208 2.266112 0-13.830144-23.617536-13.830144-23.233536-8.633344-4.498432 0.367616-11.249664 1.098752-19.115008-7.463936-2.23232 0-22.463488 3.366912-22.463488 0.364544-2.633728 1.536-4.501504 4.133888-5.251072 1.50016 6.365184 9.366528-3.365888 3.365888-3.365888 0-4.50048-0.731136-13.867008 0-15.748096 0-6.7328-5.962752-20.233216-10.865664-5.98528-4.867072-2.632704-17.59744-2.24768-18.731008-10.113024 1.133568-3.750912-7.098368-12.00128-9.732096-13.11744 2.633728-7.1168-13.462528-16.11776-19.463168-16.11776 0-1.498112-3.00032-0.74752-3.769344-2.613248-5.962752 0-7.498752-7.866368-14.231552-7.866368-7.499776 0-15.367168-5.251072-22.463488-5.251072-2.26816-4.864-13.499392-2.999296-16.09728-8.230912-5.633024 0-7.902208-10.86464-7.902208-14.998528C247.245824 486.085632 243.1488 468.852736 236.38016 468.852736zM872.12544 473.35424c0.766976-0.385024 1.132544-1.134592 1.534976-2.250752 0.366592 3.364864 1.830912 5.998592 4.097024 7.866368l0 0.749568 0.734208-0.365568c2.269184 1.865728 4.900864 3.365888 8.267776 3.365888 4.866048 0 8.999936-3.00032 11.595776-6.750208l0.768 0.749568-0.36352-1.499136c1.096704-1.865728 1.82784-4.117504 1.82784-6.367232 0-7.865344-5.960704-13.86496-13.828096-13.86496-4.903936 0-9.001984 2.633728-11.268096 6.365184-0.366592 0 0-0.366592-0.366592-0.366592 0.366592-1.114112-0.730112-3.748864-2.23232-6.36416l0 14.229504C872.892416 470.351872 872.489984 471.85408 872.12544 473.35424zM513.222656 952.87808c-244.610048 0-442.793984-198.183936-442.793984-442.446848 0-244.62848 198.183936-442.811392 442.793984-442.811392 244.646912 0 442.8288 198.182912 442.8288 442.811392C956.051456 754.694144 757.869568 952.87808 513.222656 952.87808z" p-id="3243"></path></svg>