
<svg t="1535529302211" class="icon" style="" viewBox="0 0 1024 1024" version="1.1" xmlns="http://www.w3.org/2000/svg" p-id="19948" xmlns:xlink="http://www.w3.org/1999/xlink" width="200" height="200">
<path d="M907.946667 1006.933333H116.053333a98.986667 98.986667 0 0 1-98.986666-98.986666V116.053333C17.066667 61.44 61.405867 17.066667 116.053333 17.066667h791.893334c54.647467 0 98.986667 44.373333 98.986666 98.986666v791.893334a98.986667 98.986667 0 0 1-98.986666 98.986666zM853.333333 85.333333H170.666667A85.333333 85.333333 0 0 0 85.333333 170.666667v682.666666A85.333333 85.333333 0 0 0 170.666667 938.666667h682.666666a85.333333 85.333333 0 0 0 85.333334-85.333334V170.666667A85.333333 85.333333 0 0 0 853.333333 85.333333zM485.341867 598.7328h-92.603734V277.162667H208.315733V202.9568h461.482667V277.162667h-184.456533v321.570133z" p-id="19949"></path><path d="M839.645867 227.84a13.653333 13.653333 0 0 0-13.653334-13.653333h-63.931733a13.653333 13.653333 0 0 0-13.653333 13.653333v27.306667a13.653333 13.653333 0 0 0 13.653333 13.653333h63.931733a13.653333 13.653333 0 0 0 13.653334-13.653333v-27.306667zM839.645867 408.439467a13.653333 13.653333 0 0 0-13.653334-13.653334h-162.542933a13.653333 13.653333 0 0 0-13.653333 13.653334v27.306666c0 7.509333 6.144 13.653333 13.653333 13.653334h162.542933a13.653333 13.653333 0 0 0 13.653334-13.653334v-27.306666zM839.645867 589.0048a13.653333 13.653333 0 0 0-13.653334-13.653333h-267.400533c-7.509333 0-13.653333 6.144-13.653333 13.653333v27.306667c0 7.543467 6.144 13.653333 13.653333 13.653333h267.400533a13.653333 13.653333 0 0 0 13.653334-13.653333v-27.306667zM839.645867 769.604267a13.653333 13.653333 0 0 0-13.653334-13.653334H211.0464a13.653333 13.653333 0 0 0-13.653333 13.653334v27.306666c0 7.543467 6.144 13.653333 13.653333 13.653334h614.946133a13.653333 13.653333 0 0 0 13.653334-13.653334v-27.306666z" p-id="19950"></path></svg>