
<svg width="1024" height="1024" viewBox="0 0 1024 1024" version="1.1" xmlns="http://www.w3.org/2000/svg">
    <path d="M512.001753 0C229.67192 0 0 229.685946 0 511.999416c0 282.313469 229.669582 512.000584 512.001753 512.000584 282.328665 0 511.998247-229.687115 511.998247-512.000584C1023.998831 229.685946 794.329249 0 512.001753 0L512.001753 0zM512.001753 983.031116C252.263309 983.031116 40.954857 771.729677 40.954857 511.999416c0-259.736106 211.307283-471.031701 471.045728-471.031701 259.730262 0 471.04339 211.295594 471.04339 471.031701C983.045143 771.729677 771.732015 983.031116 512.001753 983.031116L512.001753 983.031116zM512.001753 317.782664c-107.265559 0-194.203894 86.967557-194.203894 194.216752s86.938335 194.202725 194.203894 194.202725c107.263221 0 194.200387-86.95353 194.200387-194.202725C706.200971 404.75139 619.263806 317.782664 512.001753 317.782664L512.001753 317.782664z" fill="#272636"></path>
</svg>