<svg width="800px" height="540px" viewBox="0 0 800 540" version="1.1" xmlns="http://www.w3.org/2000/svg">
    <path d="M35,30 L765,30 L765,250 L35,250 L35,30 L35,30 Z M682.452874,97.4489976 L683.010378,128.664405 L116.883319,128.243738 L116.306664,97.0283164 L73.0882009,140.575528 L117.900988,184.78936 L117.343484,153.573952 L683.470543,153.99462 L684.037449,185.200461 L727.255912,141.65325 L682.452874,97.4489976 L682.452874,97.4489976 Z M35,290 L765,290 L765,510 L35,510 L35,290 L35,290 Z M682.452874,357.448998 L683.010378,388.664405 L116.883319,388.243738 L116.306664,357.028316 L73.0882009,400.575528 L117.900988,444.78936 L117.343484,413.573952 L683.470543,413.99462 L684.037449,445.200461 L727.255912,401.65325 L682.452874,357.448998 L682.452874,357.448998 Z" id="Combined-Shape" fill="#D8D8D8"></path>
</svg>