<svg viewBox="0 0 1024 1024" version="1.1"
  xmlns="http://www.w3.org/2000/svg" width="1024" height="1024">
  <path d="M64 288h512v64H64V288z m256 448H269.952l-154.144-205.952V736H64v-288h53.12l151.04 199.488V448H320v288z m176 0c-74.784 0-112-47.072-112-117.056V448h46.112v169.664c0 44.96 22.88 74.24 65.888 74.24 43.008 0 65.888-29.28 65.888-74.24V448H608v170.944C608 688.928 571.2 736 496 736zM960 736h-48.64v-222.368L826.624 736h-20.8l-85.184-222.368V736H672v-288h68.576l75.616 197.76L891.424 448H960v288z" fill="#333333" p-id="5515"></path>
</svg>
