
<svg class="icon" width="200px" height="200.00px" viewBox="0 0 1024 1024" version="1.1" xmlns="http://www.w3.org/2000/svg"><path  d="M384 352c0-41.6-25.6-76.8-64-89.6V96c0-19.2-12.8-32-32-32s-32 12.8-32 32v166.4c-38.4 12.8-64 48-64 89.6s25.6 76.8 64 89.6v137.6c-38.4 12.8-64 48-64 89.6s25.6 76.8 64 89.6V928c0 19.2 12.8 32 32 32s32-12.8 32-32v-166.4c38.4-12.8 64-48 64-89.6s-25.6-76.8-64-89.6v-137.6c38.4-16 64-51.2 64-92.8zM288 704c-19.2 0-32-12.8-32-32s12.8-32 32-32 32 12.8 32 32-12.8 32-32 32z m0-320c-19.2 0-32-12.8-32-32s12.8-32 32-32 32 12.8 32 32-12.8 32-32 32zM736 704h-256c-16 0-32 12.8-32 32s12.8 32 32 32h256c16 0 32-12.8 32-32s-12.8-32-32-32zM800 256H480c-16 0-32 12.8-32 32s12.8 32 32 32h320c16 0 32-12.8 32-32s-12.8-32-32-32zM736 448c16 0 32-12.8 32-32s-12.8-32-32-32h-256c-16 0-32 12.8-32 32s12.8 32 32 32h256zM800 576H480c-16 0-32 12.8-32 32s12.8 32 32 32h320c16 0 32-12.8 32-32s-12.8-32-32-32z"  /></svg>