
<?xml version="1.0" standalone="no"?><svg width="247.65625" height="200" viewBox="0 0 247.65625 200" version="1.1" xmlns="http://www.w3.org/2000/svg" xmlns:xlink="http://www.w3.org/1999/xlink"><g class="transform-group"><g transform="scale(0.1953125, 0.1953125)"><path d="M1178.419814 1009.891591 506.497673 1009.891591C460.118412 1009.891591 422.508985 972.291033 422.508985 925.902907L422.508986 421.96573C422.508986 375.586472 460.117146 337.977045 506.497673 337.977045L632.484498 337.977045C655.688699 337.977045 674.482644 356.79126 674.482644 379.967586 674.482644 403.171784 655.688699 421.965728 632.484498 421.965728L506.497673 421.965728 506.497673 925.902902 1178.419819 925.902902 1178.419814 421.96573 968.445572 421.96573C945.241371 421.96573 926.447426 403.171786 926.447426 379.967587 926.447426 356.791261 945.241371 337.977046 968.445572 337.977046L1178.419814 337.977046C1224.799076 337.977046 1262.408504 375.585205 1262.408504 421.965731L1262.408504 925.902907C1262.408504 972.291033 1224.799076 1009.891591 1178.419814 1009.891591L1178.419814 1009.891591 1178.419814 1009.891591ZM758.470061 673.939383 632.48323 673.939383C609.299305 673.939383 590.48509 655.145443 590.48509 631.941242 590.48509 608.737041 609.299305 589.943101 632.48323 589.943101L758.470061 589.943101 758.470061 86.004656 86.547912 86.004656 86.547912 589.941833 296.522158 589.941833C319.726357 589.941833 338.520301 608.735773 338.520301 631.939974 338.520301 655.144175 319.726357 673.938115 296.522158 673.938115L86.547912 673.93812C40.168654 673.93812 2.559227 636.32996 2.559227 589.941833L2.559228 86.004656C2.559228 39.625398 40.167388 2.015971 86.547914 2.015971L758.470061 2.015971C804.849318 2.015971 842.458746 39.62413 842.458746 86.004656L842.458746 589.941833C842.458746 636.32996 804.850586 673.939383 758.470061 673.939383L758.470061 673.939383 758.470061 673.939383Z"></path></g></g></svg>
