
<svg width="200px" height="200.00px" viewBox="0 0 1024 1024" version="1.1" xmlns="http://www.w3.org/2000/svg"><path d="M240 512h64c9.6 0 16-6.4 16-16v-32c0-9.6-6.4-16-16-16h-64c-9.6 0-16 6.4-16 16v32c0 9.6 6.4 16 16 16zM400 512h384c9.6 0 16-6.4 16-16v-32c0-9.6-6.4-16-16-16h-384c-9.6 0-16 6.4-16 16v32c0 9.6 6.4 16 16 16zM784 768h-64c-9.6 0-16 6.4-16 16v32c0 9.6 6.4 16 16 16h64c9.6 0 16-6.4 16-16v-32c0-9.6-6.4-16-16-16z"  /><path d="M896 128h-128V96c0-16-12.8-32-32-32s-32 12.8-32 32v32H320V96c0-16-12.8-32-32-32s-32 12.8-32 32v32H128c-35.2 0-64 28.8-64 64v704c0 35.2 28.8 64 64 64h768c35.2 0 64-28.8 64-64V192c0-35.2-28.8-64-64-64z m0 736c0 19.2-12.8 32-32 32H160c-19.2 0-32-12.8-32-32V384h768v480z m0-544H128V224c0-19.2 12.8-32 32-32h96v32c0 16 12.8 32 32 32s32-12.8 32-32V192h384v32c0 16 12.8 32 32 32s32-12.8 32-32V192h96c19.2 0 32 12.8 32 32v96z"  /><path d="M240 832h384c9.6 0 16-6.4 16-16v-32c0-9.6-6.4-16-16-16h-384c-9.6 0-16 6.4-16 16v32c0 9.6 6.4 16 16 16zM240 672h544c9.6 0 16-6.4 16-16v-32c0-9.6-6.4-16-16-16h-544c-9.6 0-16 6.4-16 16v32c0 9.6 6.4 16 16 16z"  /></svg>
