<svg class="icon" width="200px" height="200.00px" viewBox="0 0 1024 1024" version="1.1" xmlns="http://www.w3.org/2000/svg"><path  d="M828.8 598.4c-6.4-6.4-12.8-9.6-22.4-9.6-9.6 0-16 3.2-22.4 9.6l-89.6 89.6c-12.8 12.8-12.8 32 0 44.8 12.8 12.8 32 12.8 44.8 0l35.2-35.2V896c0 16 12.8 32 32 32s32-12.8 32-32v-198.4l38.4 38.4c12.8 12.8 32 12.8 44.8 0 12.8-12.8 12.8-32 0-44.8l-92.8-92.8zM409.6 358.4c16-35.2 6.4-76.8-19.2-105.6-28.8-28.8-73.6-35.2-108.8-22.4C246.4 246.4 224 284.8 224 323.2 224 374.4 265.6 416 316.8 416c38.4 0 76.8-22.4 92.8-57.6zM288 323.2c0-9.6 3.2-16 9.6-22.4 3.2-9.6 12.8-12.8 22.4-12.8 16 0 32 12.8 32 28.8s-12.8 32-28.8 35.2c-19.2 0-35.2-12.8-35.2-28.8z"  /><path  d="M896 96H128c-35.2 0-64 28.8-64 64v640c0 35.2 28.8 64 64 64h544v-64H160c-19.2 0-32-16-32-32V192c0-16 12.8-32 32-32h704c19.2 0 32 16 32 32v416h64V160c0-35.2-28.8-64-64-64z"  /><path  d="M182.4 713.6c12.8 12.8 32 12.8 44.8 0l134.4-134.4 112 112c3.2 3.2 3.2 3.2 6.4 3.2 12.8 6.4 25.6 6.4 38.4-3.2l316.8-316.8c12.8-12.8 12.8-32 0-44.8-12.8-12.8-32-12.8-44.8 0l-294.4 294.4-112-115.2-3.2-3.2c-12.8-9.6-28.8-9.6-41.6 3.2l-160 160c-9.6 12.8-9.6 32 3.2 44.8z"  /></svg>